<?xml version="1.0" encoding="UTF-8" standalone="no"?>
<!DOCTYPE svg PUBLIC "-//W3C//DTD SVG 1.1//EN"
 "http://www.w3.org/Graphics/SVG/1.1/DTD/svg11.dtd">
<!-- Generated by graphviz version 2.40.1 (20161225.0304)
 -->
<!-- Title: snakemake_dag Pages: 1 -->
<svg width="290pt" height="1052pt"
 viewBox="0.00 0.00 289.50 1052.00" xmlns="http://www.w3.org/2000/svg" xmlns:xlink="http://www.w3.org/1999/xlink">
<g id="graph0" class="graph" transform="scale(1 1) rotate(0) translate(4 1048)">
<title>snakemake_dag</title>
<polygon fill="#ffffff" stroke="transparent" points="-4,4 -4,-1048 285.5,-1048 285.5,4 -4,4"/>
<!-- 0 -->
<g id="node1" class="node">
<title>0</title>
<path fill="none" stroke="#56b9d8" stroke-width="2" d="M201,-36C201,-36 171,-36 171,-36 165,-36 159,-30 159,-24 159,-24 159,-12 159,-12 159,-6 165,0 171,0 171,0 201,0 201,0 207,0 213,-6 213,-12 213,-12 213,-24 213,-24 213,-30 207,-36 201,-36"/>
<text text-anchor="middle" x="186" y="-15.5" font-family="sans" font-size="10.00" fill="#000000">all</text>
</g>
<!-- 1 -->
<g id="node2" class="node">
<title>1</title>
<path fill="none" stroke="#56d8c9" stroke-width="2" d="M241,-252C241,-252 211,-252 211,-252 205,-252 199,-246 199,-240 199,-240 199,-228 199,-228 199,-222 205,-216 211,-216 211,-216 241,-216 241,-216 247,-216 253,-222 253,-228 253,-228 253,-240 253,-240 253,-246 247,-252 241,-252"/>
<text text-anchor="middle" x="226" y="-231.5" font-family="sans" font-size="10.00" fill="#000000">snpeff</text>
</g>
<!-- 1&#45;&gt;0 -->
<g id="edge2" class="edge">
<title>1&#45;&gt;0</title>
<path fill="none" stroke="#c0c0c0" stroke-width="2" d="M217.621,-215.8823C213.1948,-205.573 208.0597,-192.2994 205,-180 193.576,-134.078 188.9704,-79.0793 187.1494,-46.4217"/>
<polygon fill="#c0c0c0" stroke="#c0c0c0" stroke-width="2" points="190.6355,-46.058 186.6328,-36.2484 183.6445,-46.4131 190.6355,-46.058"/>
</g>
<!-- 2 -->
<g id="node3" class="node">
<title>2</title>
<path fill="none" stroke="#568ad8" stroke-width="2" d="M146,-180C146,-180 116,-180 116,-180 110,-180 104,-174 104,-168 104,-168 104,-156 104,-156 104,-150 110,-144 116,-144 116,-144 146,-144 146,-144 152,-144 158,-150 158,-156 158,-156 158,-168 158,-168 158,-174 152,-180 146,-180"/>
<text text-anchor="middle" x="131" y="-159.5" font-family="sans" font-size="10.00" fill="#000000">multiqc</text>
</g>
<!-- 1&#45;&gt;2 -->
<g id="edge6" class="edge">
<title>1&#45;&gt;2</title>
<path fill="none" stroke="#c0c0c0" stroke-width="2" d="M202.0275,-215.8314C190.2139,-206.8779 175.8028,-195.9558 163.0565,-186.2955"/>
<polygon fill="#c0c0c0" stroke="#c0c0c0" stroke-width="2" points="165.0486,-183.4137 154.9648,-180.1628 160.8205,-188.9925 165.0486,-183.4137"/>
</g>
<!-- 8 -->
<g id="node9" class="node">
<title>8</title>
<path fill="none" stroke="#56d87b" stroke-width="2" d="M269.5,-180C269.5,-180 226.5,-180 226.5,-180 220.5,-180 214.5,-174 214.5,-168 214.5,-168 214.5,-156 214.5,-156 214.5,-150 220.5,-144 226.5,-144 226.5,-144 269.5,-144 269.5,-144 275.5,-144 281.5,-150 281.5,-156 281.5,-156 281.5,-168 281.5,-168 281.5,-174 275.5,-180 269.5,-180"/>
<text text-anchor="middle" x="248" y="-159.5" font-family="sans" font-size="10.00" fill="#000000">vcf_to_tsv</text>
</g>
<!-- 1&#45;&gt;8 -->
<g id="edge13" class="edge">
<title>1&#45;&gt;8</title>
<path fill="none" stroke="#c0c0c0" stroke-width="2" d="M231.5515,-215.8314C233.9303,-208.0463 236.7638,-198.7729 239.4033,-190.1347"/>
<polygon fill="#c0c0c0" stroke="#c0c0c0" stroke-width="2" points="242.7987,-190.9996 242.3737,-180.4133 236.1042,-188.954 242.7987,-190.9996"/>
</g>
<!-- 2&#45;&gt;0 -->
<g id="edge3" class="edge">
<title>2&#45;&gt;0</title>
<path fill="none" stroke="#c0c0c0" stroke-width="2" d="M137.9658,-143.7623C147.4295,-118.9846 164.4311,-74.4714 175.4607,-45.5939"/>
<polygon fill="#c0c0c0" stroke="#c0c0c0" stroke-width="2" points="178.7923,-46.6803 179.0908,-36.0896 172.253,-44.1826 178.7923,-46.6803"/>
</g>
<!-- 3 -->
<g id="node4" class="node">
<title>3</title>
<path fill="none" stroke="#56a2d8" stroke-width="2" d="M267.5,-108C267.5,-108 226.5,-108 226.5,-108 220.5,-108 214.5,-102 214.5,-96 214.5,-96 214.5,-84 214.5,-84 214.5,-78 220.5,-72 226.5,-72 226.5,-72 267.5,-72 267.5,-72 273.5,-72 279.5,-78 279.5,-84 279.5,-84 279.5,-96 279.5,-96 279.5,-102 273.5,-108 267.5,-108"/>
<text text-anchor="middle" x="247" y="-87.5" font-family="sans" font-size="10.00" fill="#000000">plot_stats</text>
</g>
<!-- 3&#45;&gt;0 -->
<g id="edge1" class="edge">
<title>3&#45;&gt;0</title>
<path fill="none" stroke="#c0c0c0" stroke-width="2" d="M231.6071,-71.8314C224.5096,-63.454 215.952,-53.3531 208.176,-44.1749"/>
<polygon fill="#c0c0c0" stroke="#c0c0c0" stroke-width="2" points="210.7348,-41.7807 201.6001,-36.4133 205.3939,-46.3056 210.7348,-41.7807"/>
</g>
<!-- 4 -->
<g id="node5" class="node">
<title>4</title>
<path fill="none" stroke="#d86e56" stroke-width="2" d="M252,-324C252,-324 200,-324 200,-324 194,-324 188,-318 188,-312 188,-312 188,-300 188,-300 188,-294 194,-288 200,-288 200,-288 252,-288 252,-288 258,-288 264,-294 264,-300 264,-300 264,-312 264,-312 264,-318 258,-324 252,-324"/>
<text text-anchor="middle" x="226" y="-303.5" font-family="sans" font-size="10.00" fill="#000000">merge_calls</text>
</g>
<!-- 4&#45;&gt;1 -->
<g id="edge4" class="edge">
<title>4&#45;&gt;1</title>
<path fill="none" stroke="#c0c0c0" stroke-width="2" d="M226,-287.8314C226,-280.131 226,-270.9743 226,-262.4166"/>
<polygon fill="#c0c0c0" stroke="#c0c0c0" stroke-width="2" points="229.5001,-262.4132 226,-252.4133 222.5001,-262.4133 229.5001,-262.4132"/>
</g>
<!-- 5 -->
<g id="node6" class="node">
<title>5</title>
<path fill="none" stroke="#d88556" stroke-width="2" d="M152.5,-684C152.5,-684 85.5,-684 85.5,-684 79.5,-684 73.5,-678 73.5,-672 73.5,-672 73.5,-660 73.5,-660 73.5,-654 79.5,-648 85.5,-648 85.5,-648 152.5,-648 152.5,-648 158.5,-648 164.5,-654 164.5,-660 164.5,-660 164.5,-672 164.5,-672 164.5,-678 158.5,-684 152.5,-684"/>
<text text-anchor="middle" x="119" y="-663.5" font-family="sans" font-size="10.00" fill="#000000">samtools_stats</text>
</g>
<!-- 5&#45;&gt;2 -->
<g id="edge8" class="edge">
<title>5&#45;&gt;2</title>
<path fill="none" stroke="#c0c0c0" stroke-width="2" d="M114.856,-647.9265C108.9979,-620.7528 99,-567.6844 99,-522 99,-522 99,-522 99,-306 99,-264.9442 111.5489,-218.8385 120.9299,-190.1076"/>
<polygon fill="#c0c0c0" stroke="#c0c0c0" stroke-width="2" points="124.3411,-190.9443 124.2136,-180.3503 117.7068,-188.7116 124.3411,-190.9443"/>
</g>
<!-- 6 -->
<g id="node7" class="node">
<title>6</title>
<path fill="none" stroke="#78d856" stroke-width="2" d="M169,-252C169,-252 139,-252 139,-252 133,-252 127,-246 127,-240 127,-240 127,-228 127,-228 127,-222 133,-216 139,-216 139,-216 169,-216 169,-216 175,-216 181,-222 181,-228 181,-228 181,-240 181,-240 181,-246 175,-252 169,-252"/>
<text text-anchor="middle" x="154" y="-231.5" font-family="sans" font-size="10.00" fill="#000000">fastqc</text>
</g>
<!-- 6&#45;&gt;2 -->
<g id="edge5" class="edge">
<title>6&#45;&gt;2</title>
<path fill="none" stroke="#c0c0c0" stroke-width="2" d="M148.1961,-215.8314C145.7092,-208.0463 142.7469,-198.7729 139.9875,-190.1347"/>
<polygon fill="#c0c0c0" stroke="#c0c0c0" stroke-width="2" points="143.2591,-188.874 136.882,-180.4133 136.591,-191.0041 143.2591,-188.874"/>
</g>
<!-- 7 -->
<g id="node8" class="node">
<title>7</title>
<path fill="none" stroke="#5673d8" stroke-width="2" d="M132,-900C132,-900 58,-900 58,-900 52,-900 46,-894 46,-888 46,-888 46,-876 46,-876 46,-870 52,-864 58,-864 58,-864 132,-864 132,-864 138,-864 144,-870 144,-876 144,-876 144,-888 144,-888 144,-894 138,-900 132,-900"/>
<text text-anchor="middle" x="95" y="-879.5" font-family="sans" font-size="10.00" fill="#000000">mark_duplicates</text>
</g>
<!-- 7&#45;&gt;2 -->
<g id="edge7" class="edge">
<title>7&#45;&gt;2</title>
<path fill="none" stroke="#c0c0c0" stroke-width="2" d="M82.586,-863.7235C76.2022,-853.5841 68.7796,-840.5233 64,-828 49.4227,-789.8056 45,-778.8816 45,-738 45,-738 45,-738 45,-306 45,-259.3549 78.6725,-214.7026 103.8776,-187.8126"/>
<polygon fill="#c0c0c0" stroke="#c0c0c0" stroke-width="2" points="106.6233,-190.0079 111.0537,-180.3839 101.5886,-185.1445 106.6233,-190.0079"/>
</g>
<!-- 10 -->
<g id="node11" class="node">
<title>10</title>
<path fill="none" stroke="#97d856" stroke-width="2" d="M206.5,-828C206.5,-828 85.5,-828 85.5,-828 79.5,-828 73.5,-822 73.5,-816 73.5,-816 73.5,-804 73.5,-804 73.5,-798 79.5,-792 85.5,-792 85.5,-792 206.5,-792 206.5,-792 212.5,-792 218.5,-798 218.5,-804 218.5,-804 218.5,-816 218.5,-816 218.5,-822 212.5,-828 206.5,-828"/>
<text text-anchor="middle" x="146" y="-807.5" font-family="sans" font-size="10.00" fill="#000000">recalibrate_base_qualities</text>
</g>
<!-- 7&#45;&gt;10 -->
<g id="edge15" class="edge">
<title>7&#45;&gt;10</title>
<path fill="none" stroke="#c0c0c0" stroke-width="2" d="M107.8695,-863.8314C113.6835,-855.6232 120.6696,-845.7606 127.0646,-836.7323"/>
<polygon fill="#c0c0c0" stroke="#c0c0c0" stroke-width="2" points="130.0331,-838.5966 132.9573,-828.4133 124.321,-834.5505 130.0331,-838.5966"/>
</g>
<!-- 8&#45;&gt;3 -->
<g id="edge9" class="edge">
<title>8&#45;&gt;3</title>
<path fill="none" stroke="#c0c0c0" stroke-width="2" d="M247.7477,-143.8314C247.6407,-136.131 247.5135,-126.9743 247.3947,-118.4166"/>
<polygon fill="#c0c0c0" stroke="#c0c0c0" stroke-width="2" points="250.8944,-118.3637 247.2557,-108.4133 243.8951,-118.4609 250.8944,-118.3637"/>
</g>
<!-- 9 -->
<g id="node10" class="node">
<title>9</title>
<path fill="none" stroke="#56d0d8" stroke-width="2" d="M261,-396C261,-396 191,-396 191,-396 185,-396 179,-390 179,-384 179,-384 179,-372 179,-372 179,-366 185,-360 191,-360 191,-360 261,-360 261,-360 267,-360 273,-366 273,-372 273,-372 273,-384 273,-384 273,-390 267,-396 261,-396"/>
<text text-anchor="middle" x="226" y="-375.5" font-family="sans" font-size="10.00" fill="#000000">hard_filter_calls</text>
</g>
<!-- 9&#45;&gt;4 -->
<g id="edge10" class="edge">
<title>9&#45;&gt;4</title>
<path fill="none" stroke="#c0c0c0" stroke-width="2" d="M226,-359.8314C226,-352.131 226,-342.9743 226,-334.4166"/>
<polygon fill="#c0c0c0" stroke="#c0c0c0" stroke-width="2" points="229.5001,-334.4132 226,-324.4133 222.5001,-334.4133 229.5001,-334.4132"/>
</g>
<!-- 10&#45;&gt;5 -->
<g id="edge11" class="edge">
<title>10&#45;&gt;5</title>
<path fill="none" stroke="#c0c0c0" stroke-width="2" d="M142.5804,-791.7623C137.9549,-767.0928 129.6612,-722.8598 124.245,-693.9731"/>
<polygon fill="#c0c0c0" stroke="#c0c0c0" stroke-width="2" points="127.6748,-693.2733 122.3918,-684.0896 120.7947,-694.5634 127.6748,-693.2733"/>
</g>
<!-- 18 -->
<g id="node19" class="node">
<title>18</title>
<path fill="none" stroke="#56d8a9" stroke-width="2" d="M243.5,-756C243.5,-756 188.5,-756 188.5,-756 182.5,-756 176.5,-750 176.5,-744 176.5,-744 176.5,-732 176.5,-732 176.5,-726 182.5,-720 188.5,-720 188.5,-720 243.5,-720 243.5,-720 249.5,-720 255.5,-726 255.5,-732 255.5,-732 255.5,-744 255.5,-744 255.5,-750 249.5,-756 243.5,-756"/>
<text text-anchor="middle" x="216" y="-735.5" font-family="sans" font-size="10.00" fill="#000000">call_variants</text>
</g>
<!-- 10&#45;&gt;18 -->
<g id="edge22" class="edge">
<title>10&#45;&gt;18</title>
<path fill="none" stroke="#c0c0c0" stroke-width="2" d="M163.664,-791.8314C171.9732,-783.2848 182.0264,-772.9443 191.0918,-763.6198"/>
<polygon fill="#c0c0c0" stroke="#c0c0c0" stroke-width="2" points="193.6369,-766.023 198.0982,-756.4133 188.6179,-761.1435 193.6369,-766.023"/>
</g>
<!-- 11 -->
<g id="node12" class="node">
<title>11</title>
<path fill="none" stroke="#afd856" stroke-width="2" d="M118.5,-972C118.5,-972 71.5,-972 71.5,-972 65.5,-972 59.5,-966 59.5,-960 59.5,-960 59.5,-948 59.5,-948 59.5,-942 65.5,-936 71.5,-936 71.5,-936 118.5,-936 118.5,-936 124.5,-936 130.5,-942 130.5,-948 130.5,-948 130.5,-960 130.5,-960 130.5,-966 124.5,-972 118.5,-972"/>
<text text-anchor="middle" x="95" y="-951.5" font-family="sans" font-size="10.00" fill="#000000">map_reads</text>
</g>
<!-- 11&#45;&gt;7 -->
<g id="edge12" class="edge">
<title>11&#45;&gt;7</title>
<path fill="none" stroke="#c0c0c0" stroke-width="2" d="M95,-935.8314C95,-928.131 95,-918.9743 95,-910.4166"/>
<polygon fill="#c0c0c0" stroke="#c0c0c0" stroke-width="2" points="98.5001,-910.4132 95,-900.4133 91.5001,-910.4133 98.5001,-910.4132"/>
</g>
<!-- 12 -->
<g id="node13" class="node">
<title>12</title>
<path fill="none" stroke="#d8d356" stroke-width="2" d="M251,-468C251,-468 201,-468 201,-468 195,-468 189,-462 189,-456 189,-456 189,-444 189,-444 189,-438 195,-432 201,-432 201,-432 251,-432 251,-432 257,-432 263,-438 263,-444 263,-444 263,-456 263,-456 263,-462 257,-468 251,-468"/>
<text text-anchor="middle" x="226" y="-447.5" font-family="sans" font-size="10.00" fill="#000000">select_calls</text>
</g>
<!-- 12&#45;&gt;9 -->
<g id="edge14" class="edge">
<title>12&#45;&gt;9</title>
<path fill="none" stroke="#c0c0c0" stroke-width="2" d="M226,-431.8314C226,-424.131 226,-414.9743 226,-406.4166"/>
<polygon fill="#c0c0c0" stroke="#c0c0c0" stroke-width="2" points="229.5001,-406.4132 226,-396.4133 222.5001,-406.4133 229.5001,-406.4132"/>
</g>
<!-- 13 -->
<g id="node14" class="node">
<title>13</title>
<path fill="none" stroke="#d8a456" stroke-width="2" d="M74,-1044C74,-1044 12,-1044 12,-1044 6,-1044 0,-1038 0,-1032 0,-1032 0,-1020 0,-1020 0,-1014 6,-1008 12,-1008 12,-1008 74,-1008 74,-1008 80,-1008 86,-1014 86,-1020 86,-1020 86,-1032 86,-1032 86,-1038 80,-1044 74,-1044"/>
<text text-anchor="middle" x="43" y="-1023.5" font-family="sans" font-size="10.00" fill="#000000">trim_reads_pe</text>
</g>
<!-- 13&#45;&gt;11 -->
<g id="edge16" class="edge">
<title>13&#45;&gt;11</title>
<path fill="none" stroke="#c0c0c0" stroke-width="2" d="M56.1218,-1007.8314C62.0499,-999.6232 69.1729,-989.7606 75.6933,-980.7323"/>
<polygon fill="#c0c0c0" stroke="#c0c0c0" stroke-width="2" points="78.684,-982.5693 81.7015,-972.4133 73.0092,-978.4708 78.684,-982.5693"/>
</g>
<!-- 14 -->
<g id="node15" class="node">
<title>14</title>
<path fill="none" stroke="#d85656" stroke-width="2" d="M178,-1044C178,-1044 116,-1044 116,-1044 110,-1044 104,-1038 104,-1032 104,-1032 104,-1020 104,-1020 104,-1014 110,-1008 116,-1008 116,-1008 178,-1008 178,-1008 184,-1008 190,-1014 190,-1020 190,-1020 190,-1032 190,-1032 190,-1038 184,-1044 178,-1044"/>
<text text-anchor="middle" x="147" y="-1023.5" font-family="sans" font-size="10.00" fill="#000000">trim_reads_se</text>
</g>
<!-- 14&#45;&gt;11 -->
<g id="edge17" class="edge">
<title>14&#45;&gt;11</title>
<path fill="none" stroke="#c0c0c0" stroke-width="2" d="M133.8782,-1007.8314C127.9501,-999.6232 120.8271,-989.7606 114.3067,-980.7323"/>
<polygon fill="#c0c0c0" stroke="#c0c0c0" stroke-width="2" points="116.9908,-978.4708 108.2985,-972.4133 111.316,-982.5693 116.9908,-978.4708"/>
</g>
<!-- 15 -->
<g id="node16" class="node">
<title>15</title>
<path fill="none" stroke="#c6d856" stroke-width="2" d="M260.5,-540C260.5,-540 191.5,-540 191.5,-540 185.5,-540 179.5,-534 179.5,-528 179.5,-528 179.5,-516 179.5,-516 179.5,-510 185.5,-504 191.5,-504 191.5,-504 260.5,-504 260.5,-504 266.5,-504 272.5,-510 272.5,-516 272.5,-516 272.5,-528 272.5,-528 272.5,-534 266.5,-540 260.5,-540"/>
<text text-anchor="middle" x="226" y="-519.5" font-family="sans" font-size="10.00" fill="#000000">merge_variants</text>
</g>
<!-- 15&#45;&gt;12 -->
<g id="edge18" class="edge">
<title>15&#45;&gt;12</title>
<path fill="none" stroke="#c0c0c0" stroke-width="2" d="M226,-503.8314C226,-496.131 226,-486.9743 226,-478.4166"/>
<polygon fill="#c0c0c0" stroke="#c0c0c0" stroke-width="2" points="229.5001,-478.4132 226,-468.4133 222.5001,-478.4133 229.5001,-478.4132"/>
</g>
<!-- 16 -->
<g id="node17" class="node">
<title>16</title>
<path fill="none" stroke="#56d892" stroke-width="2" d="M267.5,-612C267.5,-612 184.5,-612 184.5,-612 178.5,-612 172.5,-606 172.5,-600 172.5,-600 172.5,-588 172.5,-588 172.5,-582 178.5,-576 184.5,-576 184.5,-576 267.5,-576 267.5,-576 273.5,-576 279.5,-582 279.5,-588 279.5,-588 279.5,-600 279.5,-600 279.5,-606 273.5,-612 267.5,-612"/>
<text text-anchor="middle" x="226" y="-591.5" font-family="sans" font-size="10.00" fill="#000000">genotype_variants</text>
</g>
<!-- 16&#45;&gt;15 -->
<g id="edge19" class="edge">
<title>16&#45;&gt;15</title>
<path fill="none" stroke="#c0c0c0" stroke-width="2" d="M226,-575.8314C226,-568.131 226,-558.9743 226,-550.4166"/>
<polygon fill="#c0c0c0" stroke="#c0c0c0" stroke-width="2" points="229.5001,-550.4132 226,-540.4133 222.5001,-550.4133 229.5001,-550.4132"/>
</g>
<!-- 17 -->
<g id="node18" class="node">
<title>17</title>
<path fill="none" stroke="#56d863" stroke-width="2" d="M257,-684C257,-684 195,-684 195,-684 189,-684 183,-678 183,-672 183,-672 183,-660 183,-660 183,-654 189,-648 195,-648 195,-648 257,-648 257,-648 263,-648 269,-654 269,-660 269,-660 269,-672 269,-672 269,-678 263,-684 257,-684"/>
<text text-anchor="middle" x="226" y="-663.5" font-family="sans" font-size="10.00" fill="#000000">combine_calls</text>
</g>
<!-- 17&#45;&gt;16 -->
<g id="edge20" class="edge">
<title>17&#45;&gt;16</title>
<path fill="none" stroke="#c0c0c0" stroke-width="2" d="M226,-647.8314C226,-640.131 226,-630.9743 226,-622.4166"/>
<polygon fill="#c0c0c0" stroke="#c0c0c0" stroke-width="2" points="229.5001,-622.4132 226,-612.4133 222.5001,-622.4133 229.5001,-622.4132"/>
</g>
<!-- 18&#45;&gt;17 -->
<g id="edge21" class="edge">
<title>18&#45;&gt;17</title>
<path fill="none" stroke="#c0c0c0" stroke-width="2" d="M218.5234,-719.8314C219.5929,-712.131 220.8647,-702.9743 222.0532,-694.4166"/>
<polygon fill="#c0c0c0" stroke="#c0c0c0" stroke-width="2" points="225.5336,-694.7997 223.4426,-684.4133 218.6001,-693.8367 225.5336,-694.7997"/>
</g>
</g>
</svg>
