<?xml version="1.0" encoding="UTF-8" standalone="no"?>
<!DOCTYPE svg PUBLIC "-//W3C//DTD SVG 1.1//EN"
 "http://www.w3.org/Graphics/SVG/1.1/DTD/svg11.dtd">
<!-- Generated by graphviz version 2.40.1 (20161225.0304)
 -->
<!-- Title: snakemake_dag Pages: 1 -->
<svg width="726pt" height="1062pt"
 viewBox="0.00 0.00 726.24 1062.00" xmlns="http://www.w3.org/2000/svg" xmlns:xlink="http://www.w3.org/1999/xlink">
<g id="graph0" class="graph" transform="scale(1 1) rotate(0) translate(4 1058)">
<title>snakemake_dag</title>
<polygon fill="#ffffff" stroke="transparent" points="-4,4 -4,-1058 722.2415,-1058 722.2415,4 -4,4"/>
<!-- 0 -->
<g id="node1" class="node">
<title>0</title>
<path fill="none" stroke="#61d856" stroke-width="2" stroke-dasharray="5,2" d="M256,-36C256,-36 226,-36 226,-36 220,-36 214,-30 214,-24 214,-24 214,-12 214,-12 214,-6 220,0 226,0 226,0 256,0 256,0 262,0 268,-6 268,-12 268,-12 268,-24 268,-24 268,-30 262,-36 256,-36"/>
<text text-anchor="middle" x="241" y="-15.5" font-family="sans" font-size="10.00" fill="#000000">all</text>
</g>
<!-- 1 -->
<g id="node2" class="node">
<title>1</title>
<path fill="none" stroke="#56d8c9" stroke-width="2" stroke-dasharray="5,2" d="M194,-254.5C194,-254.5 164,-254.5 164,-254.5 158,-254.5 152,-248.5 152,-242.5 152,-242.5 152,-230.5 152,-230.5 152,-224.5 158,-218.5 164,-218.5 164,-218.5 194,-218.5 194,-218.5 200,-218.5 206,-224.5 206,-230.5 206,-230.5 206,-242.5 206,-242.5 206,-248.5 200,-254.5 194,-254.5"/>
<text text-anchor="middle" x="179" y="-234" font-family="sans" font-size="10.00" fill="#000000">snpeff</text>
</g>
<!-- 1&#45;&gt;0 -->
<g id="edge1" class="edge">
<title>1&#45;&gt;0</title>
<path fill="none" stroke="#c0c0c0" stroke-width="2" d="M178.1204,-218.4306C177.2628,-187.2806 178.3862,-122.0041 199,-72 203.0739,-62.1176 209.4744,-52.5096 216.0621,-44.2045"/>
<polygon fill="#c0c0c0" stroke="#c0c0c0" stroke-width="2" points="218.8874,-46.2824 222.6329,-36.3717 213.5245,-41.7835 218.8874,-46.2824"/>
</g>
<!-- 2 -->
<g id="node3" class="node">
<title>2</title>
<path fill="none" stroke="#56d0d8" stroke-width="2" stroke-dasharray="5,2" d="M409,-180C409,-180 379,-180 379,-180 373,-180 367,-174 367,-168 367,-168 367,-156 367,-156 367,-150 373,-144 379,-144 379,-144 409,-144 409,-144 415,-144 421,-150 421,-156 421,-156 421,-168 421,-168 421,-174 415,-180 409,-180"/>
<text text-anchor="middle" x="394" y="-159.5" font-family="sans" font-size="10.00" fill="#000000">multiqc</text>
</g>
<!-- 1&#45;&gt;2 -->
<g id="edge14" class="edge">
<title>1&#45;&gt;2</title>
<path fill="none" stroke="#c0c0c0" stroke-width="2" d="M206.0633,-222.1959C210.6567,-219.9921 215.4221,-217.8406 220,-216 266.2081,-197.4214 321.3994,-181.2684 357.0426,-171.5856"/>
<polygon fill="#c0c0c0" stroke="#c0c0c0" stroke-width="2" points="358.2494,-174.8856 366.999,-168.9112 356.4334,-168.1252 358.2494,-174.8856"/>
</g>
<!-- 14 -->
<g id="node15" class="node">
<title>14</title>
<path fill="none" stroke="#afd856" stroke-width="2" stroke-dasharray="5,2" d="M262.5,-180C262.5,-180 219.5,-180 219.5,-180 213.5,-180 207.5,-174 207.5,-168 207.5,-168 207.5,-156 207.5,-156 207.5,-150 213.5,-144 219.5,-144 219.5,-144 262.5,-144 262.5,-144 268.5,-144 274.5,-150 274.5,-156 274.5,-156 274.5,-168 274.5,-168 274.5,-174 268.5,-180 262.5,-180"/>
<text text-anchor="middle" x="241" y="-159.5" font-family="sans" font-size="10.00" fill="#000000">vcf_to_tsv</text>
</g>
<!-- 1&#45;&gt;14 -->
<g id="edge24" class="edge">
<title>1&#45;&gt;14</title>
<path fill="none" stroke="#c0c0c0" stroke-width="2" d="M194.0085,-218.4656C201.6437,-209.2911 211.0611,-197.975 219.4556,-187.8881"/>
<polygon fill="#c0c0c0" stroke="#c0c0c0" stroke-width="2" points="222.2083,-190.0519 225.9149,-180.1265 216.8278,-185.5741 222.2083,-190.0519"/>
</g>
<!-- 2&#45;&gt;0 -->
<g id="edge2" class="edge">
<title>2&#45;&gt;0</title>
<path fill="none" stroke="#c0c0c0" stroke-width="2" d="M374.6224,-143.7623C347.4915,-118.2272 298.0898,-71.7316 267.5525,-42.9906"/>
<polygon fill="#c0c0c0" stroke="#c0c0c0" stroke-width="2" points="269.901,-40.3946 260.2202,-36.0896 265.1035,-45.492 269.901,-40.3946"/>
</g>
<!-- 3 -->
<g id="node4" class="node">
<title>3</title>
<path fill="none" stroke="#56d87b" stroke-width="2" stroke-dasharray="5,2" d="M261.5,-108C261.5,-108 220.5,-108 220.5,-108 214.5,-108 208.5,-102 208.5,-96 208.5,-96 208.5,-84 208.5,-84 208.5,-78 214.5,-72 220.5,-72 220.5,-72 261.5,-72 261.5,-72 267.5,-72 273.5,-78 273.5,-84 273.5,-84 273.5,-96 273.5,-96 273.5,-102 267.5,-108 261.5,-108"/>
<text text-anchor="middle" x="241" y="-87.5" font-family="sans" font-size="10.00" fill="#000000">plot_stats</text>
</g>
<!-- 3&#45;&gt;0 -->
<g id="edge3" class="edge">
<title>3&#45;&gt;0</title>
<path fill="none" stroke="#c0c0c0" stroke-width="2" d="M241,-71.8314C241,-64.131 241,-54.9743 241,-46.4166"/>
<polygon fill="#c0c0c0" stroke="#c0c0c0" stroke-width="2" points="244.5001,-46.4132 241,-36.4133 237.5001,-46.4133 244.5001,-46.4132"/>
</g>
<!-- 4 -->
<g id="node5" class="node">
<title>4</title>
<path fill="none" stroke="#d85656" stroke-width="2" stroke-dasharray="5,2" d="M185,-329C185,-329 133,-329 133,-329 127,-329 121,-323 121,-317 121,-317 121,-305 121,-305 121,-299 127,-293 133,-293 133,-293 185,-293 185,-293 191,-293 197,-299 197,-305 197,-305 197,-317 197,-317 197,-323 191,-329 185,-329"/>
<text text-anchor="middle" x="159" y="-308.5" font-family="sans" font-size="10.00" fill="#000000">merge_calls</text>
</g>
<!-- 4&#45;&gt;1 -->
<g id="edge4" class="edge">
<title>4&#45;&gt;1</title>
<path fill="none" stroke="#c0c0c0" stroke-width="2" d="M163.8414,-292.9656C166.1337,-284.427 168.924,-274.0333 171.4827,-264.502"/>
<polygon fill="#c0c0c0" stroke="#c0c0c0" stroke-width="2" points="174.9213,-265.192 174.1338,-254.6265 168.1607,-263.3771 174.9213,-265.192"/>
</g>
<!-- 5 -->
<g id="node6" class="node">
<title>5</title>
<path fill="none" stroke="#78d856" stroke-width="2" stroke-dasharray="5,2" d="M279.5,-689C279.5,-689 212.5,-689 212.5,-689 206.5,-689 200.5,-683 200.5,-677 200.5,-677 200.5,-665 200.5,-665 200.5,-659 206.5,-653 212.5,-653 212.5,-653 279.5,-653 279.5,-653 285.5,-653 291.5,-659 291.5,-665 291.5,-665 291.5,-677 291.5,-677 291.5,-683 285.5,-689 279.5,-689"/>
<text text-anchor="middle" x="246" y="-668.5" font-family="sans" font-size="10.00" fill="#000000">samtools_stats</text>
</g>
<!-- 5&#45;&gt;2 -->
<g id="edge5" class="edge">
<title>5&#45;&gt;2</title>
<path fill="none" stroke="#c0c0c0" stroke-width="2" d="M243.5136,-652.855C239.9987,-625.5902 234,-572.4068 234,-527 234,-527 234,-527 234,-311 234,-267.9416 225.2208,-248.8989 253,-216 279.0181,-185.1868 324.6888,-171.9063 356.9937,-166.2139"/>
<polygon fill="#c0c0c0" stroke="#c0c0c0" stroke-width="2" points="357.6484,-169.6538 366.9709,-164.6197 356.5439,-162.7415 357.6484,-169.6538"/>
</g>
<!-- 6 -->
<g id="node7" class="node">
<title>6</title>
<path fill="none" stroke="#d88556" stroke-width="2" stroke-dasharray="5,2" d="M315.5,-257C315.5,-257 274.5,-257 274.5,-257 268.5,-257 262.5,-251 262.5,-245 262.5,-245 262.5,-228 262.5,-228 262.5,-222 268.5,-216 274.5,-216 274.5,-216 315.5,-216 315.5,-216 321.5,-216 327.5,-222 327.5,-228 327.5,-228 327.5,-245 327.5,-245 327.5,-251 321.5,-257 315.5,-257"/>
<text text-anchor="middle" x="295" y="-245" font-family="sans" font-size="10.00" fill="#000000">fastqc</text>
<text text-anchor="middle" x="295" y="-234" font-family="sans" font-size="10.00" fill="#000000">sample: A</text>
<text text-anchor="middle" x="295" y="-223" font-family="sans" font-size="10.00" fill="#000000">unit: 1</text>
</g>
<!-- 6&#45;&gt;2 -->
<g id="edge6" class="edge">
<title>6&#45;&gt;2</title>
<path fill="none" stroke="#c0c0c0" stroke-width="2" d="M322.3143,-215.9453C334.521,-206.7594 348.9973,-195.8656 361.7342,-186.2809"/>
<polygon fill="#c0c0c0" stroke="#c0c0c0" stroke-width="2" points="363.9258,-189.012 369.8116,-180.2024 359.7167,-183.4187 363.9258,-189.012"/>
</g>
<!-- 7 -->
<g id="node8" class="node">
<title>7</title>
<path fill="none" stroke="#d8bc56" stroke-width="2" stroke-dasharray="5,2" d="M301,-905C301,-905 227,-905 227,-905 221,-905 215,-899 215,-893 215,-893 215,-881 215,-881 215,-875 221,-869 227,-869 227,-869 301,-869 301,-869 307,-869 313,-875 313,-881 313,-881 313,-893 313,-893 313,-899 307,-905 301,-905"/>
<text text-anchor="middle" x="264" y="-884.5" font-family="sans" font-size="10.00" fill="#000000">mark_duplicates</text>
</g>
<!-- 7&#45;&gt;2 -->
<g id="edge7" class="edge">
<title>7&#45;&gt;2</title>
<path fill="none" stroke="#c0c0c0" stroke-width="2" d="M276.2907,-868.7779C282.5497,-858.6545 289.7219,-845.5916 294,-833 315.0809,-770.9531 375.0847,-309.6714 390.4044,-190.1928"/>
<polygon fill="#c0c0c0" stroke="#c0c0c0" stroke-width="2" points="393.9079,-190.3883 391.706,-180.0248 386.9645,-189.4995 393.9079,-190.3883"/>
</g>
<!-- 17 -->
<g id="node18" class="node">
<title>17</title>
<path fill="none" stroke="#97d856" stroke-width="2" stroke-dasharray="5,2" d="M273.5,-833C273.5,-833 152.5,-833 152.5,-833 146.5,-833 140.5,-827 140.5,-821 140.5,-821 140.5,-809 140.5,-809 140.5,-803 146.5,-797 152.5,-797 152.5,-797 273.5,-797 273.5,-797 279.5,-797 285.5,-803 285.5,-809 285.5,-809 285.5,-821 285.5,-821 285.5,-827 279.5,-833 273.5,-833"/>
<text text-anchor="middle" x="213" y="-812.5" font-family="sans" font-size="10.00" fill="#000000">recalibrate_base_qualities</text>
</g>
<!-- 7&#45;&gt;17 -->
<g id="edge27" class="edge">
<title>7&#45;&gt;17</title>
<path fill="none" stroke="#c0c0c0" stroke-width="2" d="M251.1305,-868.8314C245.3165,-860.6232 238.3304,-850.7606 231.9354,-841.7323"/>
<polygon fill="#c0c0c0" stroke="#c0c0c0" stroke-width="2" points="234.679,-839.5505 226.0427,-833.4133 228.9669,-843.5966 234.679,-839.5505"/>
</g>
<!-- 8 -->
<g id="node9" class="node">
<title>8</title>
<path fill="none" stroke="#78d856" stroke-width="2" stroke-dasharray="5,2" d="M459.5,-617C459.5,-617 392.5,-617 392.5,-617 386.5,-617 380.5,-611 380.5,-605 380.5,-605 380.5,-593 380.5,-593 380.5,-587 386.5,-581 392.5,-581 392.5,-581 459.5,-581 459.5,-581 465.5,-581 471.5,-587 471.5,-593 471.5,-593 471.5,-605 471.5,-605 471.5,-611 465.5,-617 459.5,-617"/>
<text text-anchor="middle" x="426" y="-596.5" font-family="sans" font-size="10.00" fill="#000000">samtools_stats</text>
</g>
<!-- 8&#45;&gt;2 -->
<g id="edge8" class="edge">
<title>8&#45;&gt;2</title>
<path fill="none" stroke="#c0c0c0" stroke-width="2" d="M419.2136,-580.6497C409.8203,-553.5619 394,-501.0977 394,-455 394,-455 394,-455 394,-311 394,-269.0695 394,-220.5016 394,-190.5122"/>
<polygon fill="#c0c0c0" stroke="#c0c0c0" stroke-width="2" points="397.5001,-190.3508 394,-180.3508 390.5001,-190.3508 397.5001,-190.3508"/>
</g>
<!-- 9 -->
<g id="node10" class="node">
<title>9</title>
<path fill="none" stroke="#d88556" stroke-width="2" stroke-dasharray="5,2" d="M475.5,-257C475.5,-257 434.5,-257 434.5,-257 428.5,-257 422.5,-251 422.5,-245 422.5,-245 422.5,-228 422.5,-228 422.5,-222 428.5,-216 434.5,-216 434.5,-216 475.5,-216 475.5,-216 481.5,-216 487.5,-222 487.5,-228 487.5,-228 487.5,-245 487.5,-245 487.5,-251 481.5,-257 475.5,-257"/>
<text text-anchor="middle" x="455" y="-245" font-family="sans" font-size="10.00" fill="#000000">fastqc</text>
<text text-anchor="middle" x="455" y="-234" font-family="sans" font-size="10.00" fill="#000000">sample: B</text>
<text text-anchor="middle" x="455" y="-223" font-family="sans" font-size="10.00" fill="#000000">unit: 1</text>
</g>
<!-- 9&#45;&gt;2 -->
<g id="edge9" class="edge">
<title>9&#45;&gt;2</title>
<path fill="none" stroke="#c0c0c0" stroke-width="2" d="M438.0081,-215.7476C430.9906,-207.177 422.7775,-197.1463 415.3593,-188.0864"/>
<polygon fill="#c0c0c0" stroke="#c0c0c0" stroke-width="2" points="417.8705,-185.6286 408.8272,-180.1087 412.4544,-190.0633 417.8705,-185.6286"/>
</g>
<!-- 10 -->
<g id="node11" class="node">
<title>10</title>
<path fill="none" stroke="#d8bc56" stroke-width="2" stroke-dasharray="5,2" d="M528,-905C528,-905 454,-905 454,-905 448,-905 442,-899 442,-893 442,-893 442,-881 442,-881 442,-875 448,-869 454,-869 454,-869 528,-869 528,-869 534,-869 540,-875 540,-881 540,-881 540,-893 540,-893 540,-899 534,-905 528,-905"/>
<text text-anchor="middle" x="491" y="-884.5" font-family="sans" font-size="10.00" fill="#000000">mark_duplicates</text>
</g>
<!-- 10&#45;&gt;2 -->
<g id="edge10" class="edge">
<title>10&#45;&gt;2</title>
<path fill="none" stroke="#c0c0c0" stroke-width="2" d="M496.18,-868.9889C503.5027,-841.8949 516,-788.9269 516,-743 516,-743 516,-743 516,-311 516,-267.9416 522.806,-250.4685 497,-216 480.7672,-194.3182 453.2637,-180.5316 430.7591,-172.3194"/>
<polygon fill="#c0c0c0" stroke="#c0c0c0" stroke-width="2" points="431.7439,-168.9572 421.1493,-169.0324 429.4784,-175.5805 431.7439,-168.9572"/>
</g>
<!-- 19 -->
<g id="node20" class="node">
<title>19</title>
<path fill="none" stroke="#97d856" stroke-width="2" stroke-dasharray="5,2" d="M475.5,-833C475.5,-833 354.5,-833 354.5,-833 348.5,-833 342.5,-827 342.5,-821 342.5,-821 342.5,-809 342.5,-809 342.5,-803 348.5,-797 354.5,-797 354.5,-797 475.5,-797 475.5,-797 481.5,-797 487.5,-803 487.5,-809 487.5,-809 487.5,-821 487.5,-821 487.5,-827 481.5,-833 475.5,-833"/>
<text text-anchor="middle" x="415" y="-812.5" font-family="sans" font-size="10.00" fill="#000000">recalibrate_base_qualities</text>
</g>
<!-- 10&#45;&gt;19 -->
<g id="edge29" class="edge">
<title>10&#45;&gt;19</title>
<path fill="none" stroke="#c0c0c0" stroke-width="2" d="M471.822,-868.8314C462.6412,-860.1337 451.4994,-849.5783 441.5224,-840.1265"/>
<polygon fill="#c0c0c0" stroke="#c0c0c0" stroke-width="2" points="443.8385,-837.4995 434.1719,-833.1628 439.0243,-842.5811 443.8385,-837.4995"/>
</g>
<!-- 11 -->
<g id="node12" class="node">
<title>11</title>
<path fill="none" stroke="#78d856" stroke-width="2" stroke-dasharray="5,2" d="M630.5,-545C630.5,-545 563.5,-545 563.5,-545 557.5,-545 551.5,-539 551.5,-533 551.5,-533 551.5,-521 551.5,-521 551.5,-515 557.5,-509 563.5,-509 563.5,-509 630.5,-509 630.5,-509 636.5,-509 642.5,-515 642.5,-521 642.5,-521 642.5,-533 642.5,-533 642.5,-539 636.5,-545 630.5,-545"/>
<text text-anchor="middle" x="597" y="-524.5" font-family="sans" font-size="10.00" fill="#000000">samtools_stats</text>
</g>
<!-- 11&#45;&gt;2 -->
<g id="edge11" class="edge">
<title>11&#45;&gt;2</title>
<path fill="none" stroke="#c0c0c0" stroke-width="2" d="M587.8808,-508.8786C575.2585,-482.076 554,-429.9635 554,-383 554,-383 554,-383 554,-311 554,-267.4512 558.72,-248.7362 530,-216 504.7121,-187.1759 461.9663,-173.5693 431.1398,-167.2557"/>
<polygon fill="#c0c0c0" stroke="#c0c0c0" stroke-width="2" points="431.6596,-163.7922 421.1849,-165.3828 430.3653,-170.6715 431.6596,-163.7922"/>
</g>
<!-- 12 -->
<g id="node13" class="node">
<title>12</title>
<path fill="none" stroke="#d88556" stroke-width="2" stroke-dasharray="5,2" d="M635.5,-257C635.5,-257 594.5,-257 594.5,-257 588.5,-257 582.5,-251 582.5,-245 582.5,-245 582.5,-228 582.5,-228 582.5,-222 588.5,-216 594.5,-216 594.5,-216 635.5,-216 635.5,-216 641.5,-216 647.5,-222 647.5,-228 647.5,-228 647.5,-245 647.5,-245 647.5,-251 641.5,-257 635.5,-257"/>
<text text-anchor="middle" x="615" y="-245" font-family="sans" font-size="10.00" fill="#000000">fastqc</text>
<text text-anchor="middle" x="615" y="-234" font-family="sans" font-size="10.00" fill="#000000">sample: B</text>
<text text-anchor="middle" x="615" y="-223" font-family="sans" font-size="10.00" fill="#000000">unit: 2</text>
</g>
<!-- 12&#45;&gt;2 -->
<g id="edge12" class="edge">
<title>12&#45;&gt;2</title>
<path fill="none" stroke="#c0c0c0" stroke-width="2" d="M582.3186,-221.696C577.5497,-219.6965 572.6724,-217.738 568,-216 521.4564,-198.6874 466.5567,-182.2994 431.0564,-172.2136"/>
<polygon fill="#c0c0c0" stroke="#c0c0c0" stroke-width="2" points="431.7119,-168.762 421.1373,-169.4162 429.8118,-175.4992 431.7119,-168.762"/>
</g>
<!-- 13 -->
<g id="node14" class="node">
<title>13</title>
<path fill="none" stroke="#d8bc56" stroke-width="2" stroke-dasharray="5,2" d="M679,-905C679,-905 605,-905 605,-905 599,-905 593,-899 593,-893 593,-893 593,-881 593,-881 593,-875 599,-869 605,-869 605,-869 679,-869 679,-869 685,-869 691,-875 691,-881 691,-881 691,-893 691,-893 691,-899 685,-905 679,-905"/>
<text text-anchor="middle" x="642" y="-884.5" font-family="sans" font-size="10.00" fill="#000000">mark_duplicates</text>
</g>
<!-- 13&#45;&gt;2 -->
<g id="edge13" class="edge">
<title>13&#45;&gt;2</title>
<path fill="none" stroke="#c0c0c0" stroke-width="2" d="M667.2757,-868.8373C678.6354,-859.3929 691.2108,-846.9174 699,-833 718.966,-797.3255 718,-783.8816 718,-743 718,-743 718,-743 718,-311 718,-260.823 698.3774,-244.3838 657,-216 620.6802,-191.0856 494.6636,-173.5281 431.1709,-166.0426"/>
<polygon fill="#c0c0c0" stroke="#c0c0c0" stroke-width="2" points="431.5104,-162.5586 421.1745,-164.8865 430.7062,-169.5123 431.5104,-162.5586"/>
</g>
<!-- 21 -->
<g id="node22" class="node">
<title>21</title>
<path fill="none" stroke="#97d856" stroke-width="2" stroke-dasharray="5,2" d="M677.5,-833C677.5,-833 556.5,-833 556.5,-833 550.5,-833 544.5,-827 544.5,-821 544.5,-821 544.5,-809 544.5,-809 544.5,-803 550.5,-797 556.5,-797 556.5,-797 677.5,-797 677.5,-797 683.5,-797 689.5,-803 689.5,-809 689.5,-809 689.5,-821 689.5,-821 689.5,-827 683.5,-833 677.5,-833"/>
<text text-anchor="middle" x="617" y="-812.5" font-family="sans" font-size="10.00" fill="#000000">recalibrate_base_qualities</text>
</g>
<!-- 13&#45;&gt;21 -->
<g id="edge31" class="edge">
<title>13&#45;&gt;21</title>
<path fill="none" stroke="#c0c0c0" stroke-width="2" d="M635.6914,-868.8314C632.9883,-861.0463 629.7684,-851.7729 626.769,-843.1347"/>
<polygon fill="#c0c0c0" stroke="#c0c0c0" stroke-width="2" points="629.98,-841.7119 623.3935,-833.4133 623.3673,-844.0081 629.98,-841.7119"/>
</g>
<!-- 14&#45;&gt;3 -->
<g id="edge15" class="edge">
<title>14&#45;&gt;3</title>
<path fill="none" stroke="#c0c0c0" stroke-width="2" d="M241,-143.8314C241,-136.131 241,-126.9743 241,-118.4166"/>
<polygon fill="#c0c0c0" stroke="#c0c0c0" stroke-width="2" points="244.5001,-118.4132 241,-108.4133 237.5001,-118.4133 244.5001,-118.4132"/>
</g>
<!-- 15 -->
<g id="node16" class="node">
<title>15</title>
<path fill="none" stroke="#56b9d8" stroke-width="2" stroke-dasharray="5,2" d="M82,-401C82,-401 12,-401 12,-401 6,-401 0,-395 0,-389 0,-389 0,-377 0,-377 0,-371 6,-365 12,-365 12,-365 82,-365 82,-365 88,-365 94,-371 94,-377 94,-377 94,-389 94,-389 94,-395 88,-401 82,-401"/>
<text text-anchor="middle" x="47" y="-380.5" font-family="sans" font-size="10.00" fill="#000000">hard_filter_calls</text>
</g>
<!-- 15&#45;&gt;4 -->
<g id="edge16" class="edge">
<title>15&#45;&gt;4</title>
<path fill="none" stroke="#c0c0c0" stroke-width="2" d="M75.2623,-364.8314C89.4552,-355.7074 106.8282,-344.539 122.0636,-334.7449"/>
<polygon fill="#c0c0c0" stroke="#c0c0c0" stroke-width="2" points="124.2276,-337.5146 130.7467,-329.1628 120.4422,-331.6263 124.2276,-337.5146"/>
</g>
<!-- 16 -->
<g id="node17" class="node">
<title>16</title>
<path fill="none" stroke="#56b9d8" stroke-width="2" stroke-dasharray="5,2" d="M194,-401C194,-401 124,-401 124,-401 118,-401 112,-395 112,-389 112,-389 112,-377 112,-377 112,-371 118,-365 124,-365 124,-365 194,-365 194,-365 200,-365 206,-371 206,-377 206,-377 206,-389 206,-389 206,-395 200,-401 194,-401"/>
<text text-anchor="middle" x="159" y="-380.5" font-family="sans" font-size="10.00" fill="#000000">hard_filter_calls</text>
</g>
<!-- 16&#45;&gt;4 -->
<g id="edge17" class="edge">
<title>16&#45;&gt;4</title>
<path fill="none" stroke="#c0c0c0" stroke-width="2" d="M159,-364.8314C159,-357.131 159,-347.9743 159,-339.4166"/>
<polygon fill="#c0c0c0" stroke="#c0c0c0" stroke-width="2" points="162.5001,-339.4132 159,-329.4133 155.5001,-339.4133 162.5001,-339.4132"/>
</g>
<!-- 17&#45;&gt;5 -->
<g id="edge18" class="edge">
<title>17&#45;&gt;5</title>
<path fill="none" stroke="#c0c0c0" stroke-width="2" d="M217.1795,-796.7623C222.8329,-772.0928 232.9696,-727.8598 239.5895,-698.9731"/>
<polygon fill="#c0c0c0" stroke="#c0c0c0" stroke-width="2" points="243.0322,-699.6188 241.8545,-689.0896 236.2091,-698.0551 243.0322,-699.6188"/>
</g>
<!-- 31 -->
<g id="node32" class="node">
<title>31</title>
<path fill="none" stroke="#d8a456" stroke-width="2" stroke-dasharray="5,2" d="M181.5,-761C181.5,-761 126.5,-761 126.5,-761 120.5,-761 114.5,-755 114.5,-749 114.5,-749 114.5,-737 114.5,-737 114.5,-731 120.5,-725 126.5,-725 126.5,-725 181.5,-725 181.5,-725 187.5,-725 193.5,-731 193.5,-737 193.5,-737 193.5,-749 193.5,-749 193.5,-755 187.5,-761 181.5,-761"/>
<text text-anchor="middle" x="154" y="-746" font-family="sans" font-size="10.00" fill="#000000">call_variants</text>
<text text-anchor="middle" x="154" y="-735" font-family="sans" font-size="10.00" fill="#000000">contig: 21</text>
</g>
<!-- 17&#45;&gt;31 -->
<g id="edge39" class="edge">
<title>17&#45;&gt;31</title>
<path fill="none" stroke="#c0c0c0" stroke-width="2" d="M198.1118,-796.8314C191.247,-788.454 182.9699,-778.3531 175.4489,-769.1749"/>
<polygon fill="#c0c0c0" stroke="#c0c0c0" stroke-width="2" points="178.1341,-766.9297 169.0886,-761.4133 172.7197,-771.3665 178.1341,-766.9297"/>
</g>
<!-- 18 -->
<g id="node19" class="node">
<title>18</title>
<path fill="none" stroke="#d86e56" stroke-width="2" stroke-dasharray="5,2" d="M287.5,-977C287.5,-977 240.5,-977 240.5,-977 234.5,-977 228.5,-971 228.5,-965 228.5,-965 228.5,-953 228.5,-953 228.5,-947 234.5,-941 240.5,-941 240.5,-941 287.5,-941 287.5,-941 293.5,-941 299.5,-947 299.5,-953 299.5,-953 299.5,-965 299.5,-965 299.5,-971 293.5,-977 287.5,-977"/>
<text text-anchor="middle" x="264" y="-956.5" font-family="sans" font-size="10.00" fill="#000000">map_reads</text>
</g>
<!-- 18&#45;&gt;7 -->
<g id="edge19" class="edge">
<title>18&#45;&gt;7</title>
<path fill="none" stroke="#c0c0c0" stroke-width="2" d="M264,-940.8314C264,-933.131 264,-923.9743 264,-915.4166"/>
<polygon fill="#c0c0c0" stroke="#c0c0c0" stroke-width="2" points="267.5001,-915.4132 264,-905.4133 260.5001,-915.4133 267.5001,-915.4132"/>
</g>
<!-- 19&#45;&gt;8 -->
<g id="edge20" class="edge">
<title>19&#45;&gt;8</title>
<path fill="none" stroke="#c0c0c0" stroke-width="2" d="M421.8195,-796.7996C425.3281,-786.4645 429.2317,-773.1925 431,-761 437.7491,-714.465 433.5564,-659.6536 429.831,-627.2"/>
<polygon fill="#c0c0c0" stroke="#c0c0c0" stroke-width="2" points="433.2839,-626.5996 428.6021,-617.0953 426.3351,-627.4448 433.2839,-626.5996"/>
</g>
<!-- 32 -->
<g id="node33" class="node">
<title>32</title>
<path fill="none" stroke="#d8a456" stroke-width="2" stroke-dasharray="5,2" d="M409.5,-761C409.5,-761 354.5,-761 354.5,-761 348.5,-761 342.5,-755 342.5,-749 342.5,-749 342.5,-737 342.5,-737 342.5,-731 348.5,-725 354.5,-725 354.5,-725 409.5,-725 409.5,-725 415.5,-725 421.5,-731 421.5,-737 421.5,-737 421.5,-749 421.5,-749 421.5,-755 415.5,-761 409.5,-761"/>
<text text-anchor="middle" x="382" y="-746" font-family="sans" font-size="10.00" fill="#000000">call_variants</text>
<text text-anchor="middle" x="382" y="-735" font-family="sans" font-size="10.00" fill="#000000">contig: 21</text>
</g>
<!-- 19&#45;&gt;32 -->
<g id="edge40" class="edge">
<title>19&#45;&gt;32</title>
<path fill="none" stroke="#c0c0c0" stroke-width="2" d="M406.6727,-796.8314C403.027,-788.8771 398.6691,-779.369 394.6373,-770.5723"/>
<polygon fill="#c0c0c0" stroke="#c0c0c0" stroke-width="2" points="397.7877,-769.0456 390.4394,-761.4133 391.4243,-771.9622 397.7877,-769.0456"/>
</g>
<!-- 20 -->
<g id="node21" class="node">
<title>20</title>
<path fill="none" stroke="#d86e56" stroke-width="2" stroke-dasharray="5,2" d="M514.5,-977C514.5,-977 467.5,-977 467.5,-977 461.5,-977 455.5,-971 455.5,-965 455.5,-965 455.5,-953 455.5,-953 455.5,-947 461.5,-941 467.5,-941 467.5,-941 514.5,-941 514.5,-941 520.5,-941 526.5,-947 526.5,-953 526.5,-953 526.5,-965 526.5,-965 526.5,-971 520.5,-977 514.5,-977"/>
<text text-anchor="middle" x="491" y="-956.5" font-family="sans" font-size="10.00" fill="#000000">map_reads</text>
</g>
<!-- 20&#45;&gt;10 -->
<g id="edge21" class="edge">
<title>20&#45;&gt;10</title>
<path fill="none" stroke="#c0c0c0" stroke-width="2" d="M491,-940.8314C491,-933.131 491,-923.9743 491,-915.4166"/>
<polygon fill="#c0c0c0" stroke="#c0c0c0" stroke-width="2" points="494.5001,-915.4132 491,-905.4133 487.5001,-915.4133 494.5001,-915.4132"/>
</g>
<!-- 21&#45;&gt;11 -->
<g id="edge22" class="edge">
<title>21&#45;&gt;11</title>
<path fill="none" stroke="#c0c0c0" stroke-width="2" d="M615.7489,-796.9843C612.3676,-748.2939 603.0275,-613.7961 598.9484,-555.0573"/>
<polygon fill="#c0c0c0" stroke="#c0c0c0" stroke-width="2" points="602.4351,-554.7424 598.2506,-545.0089 595.4519,-555.2274 602.4351,-554.7424"/>
</g>
<!-- 21&#45;&gt;32 -->
<g id="edge41" class="edge">
<title>21&#45;&gt;32</title>
<path fill="none" stroke="#c0c0c0" stroke-width="2" d="M558.0029,-796.9243C519.1045,-785.0065 468.7217,-769.5701 431.8352,-758.2687"/>
<polygon fill="#c0c0c0" stroke="#c0c0c0" stroke-width="2" points="432.3966,-754.7801 421.81,-755.1971 430.346,-761.4731 432.3966,-754.7801"/>
</g>
<!-- 22 -->
<g id="node23" class="node">
<title>22</title>
<path fill="none" stroke="#d86e56" stroke-width="2" stroke-dasharray="5,2" d="M665.5,-977C665.5,-977 618.5,-977 618.5,-977 612.5,-977 606.5,-971 606.5,-965 606.5,-965 606.5,-953 606.5,-953 606.5,-947 612.5,-941 618.5,-941 618.5,-941 665.5,-941 665.5,-941 671.5,-941 677.5,-947 677.5,-953 677.5,-953 677.5,-965 677.5,-965 677.5,-971 671.5,-977 665.5,-977"/>
<text text-anchor="middle" x="642" y="-956.5" font-family="sans" font-size="10.00" fill="#000000">map_reads</text>
</g>
<!-- 22&#45;&gt;13 -->
<g id="edge23" class="edge">
<title>22&#45;&gt;13</title>
<path fill="none" stroke="#c0c0c0" stroke-width="2" d="M642,-940.8314C642,-933.131 642,-923.9743 642,-915.4166"/>
<polygon fill="#c0c0c0" stroke="#c0c0c0" stroke-width="2" points="645.5001,-915.4132 642,-905.4133 638.5001,-915.4133 645.5001,-915.4132"/>
</g>
<!-- 23 -->
<g id="node24" class="node">
<title>23</title>
<path fill="none" stroke="#56d863" stroke-width="2" stroke-dasharray="5,2" d="M78.5,-473C78.5,-473 19.5,-473 19.5,-473 13.5,-473 7.5,-467 7.5,-461 7.5,-461 7.5,-449 7.5,-449 7.5,-443 13.5,-437 19.5,-437 19.5,-437 78.5,-437 78.5,-437 84.5,-437 90.5,-443 90.5,-449 90.5,-449 90.5,-461 90.5,-461 90.5,-467 84.5,-473 78.5,-473"/>
<text text-anchor="middle" x="49" y="-458" font-family="sans" font-size="10.00" fill="#000000">select_calls</text>
<text text-anchor="middle" x="49" y="-447" font-family="sans" font-size="10.00" fill="#000000">vartype: snvs</text>
</g>
<!-- 23&#45;&gt;15 -->
<g id="edge25" class="edge">
<title>23&#45;&gt;15</title>
<path fill="none" stroke="#c0c0c0" stroke-width="2" d="M48.4953,-436.8314C48.2814,-429.131 48.0271,-419.9743 47.7894,-411.4166"/>
<polygon fill="#c0c0c0" stroke="#c0c0c0" stroke-width="2" points="51.2879,-411.3122 47.5115,-401.4133 44.2906,-411.5066 51.2879,-411.3122"/>
</g>
<!-- 24 -->
<g id="node25" class="node">
<title>24</title>
<path fill="none" stroke="#56d863" stroke-width="2" stroke-dasharray="5,2" d="M189.5,-473C189.5,-473 124.5,-473 124.5,-473 118.5,-473 112.5,-467 112.5,-461 112.5,-461 112.5,-449 112.5,-449 112.5,-443 118.5,-437 124.5,-437 124.5,-437 189.5,-437 189.5,-437 195.5,-437 201.5,-443 201.5,-449 201.5,-449 201.5,-461 201.5,-461 201.5,-467 195.5,-473 189.5,-473"/>
<text text-anchor="middle" x="157" y="-458" font-family="sans" font-size="10.00" fill="#000000">select_calls</text>
<text text-anchor="middle" x="157" y="-447" font-family="sans" font-size="10.00" fill="#000000">vartype: indels</text>
</g>
<!-- 24&#45;&gt;16 -->
<g id="edge26" class="edge">
<title>24&#45;&gt;16</title>
<path fill="none" stroke="#c0c0c0" stroke-width="2" d="M157.5047,-436.8314C157.7186,-429.131 157.9729,-419.9743 158.2106,-411.4166"/>
<polygon fill="#c0c0c0" stroke="#c0c0c0" stroke-width="2" points="161.7094,-411.5066 158.4885,-401.4133 154.7121,-411.3122 161.7094,-411.5066"/>
</g>
<!-- 25 -->
<g id="node26" class="node">
<title>25</title>
<path fill="none" stroke="#56a2d8" stroke-width="2" stroke-dasharray="5,2" d="M295,-1054C295,-1054 233,-1054 233,-1054 227,-1054 221,-1048 221,-1042 221,-1042 221,-1025 221,-1025 221,-1019 227,-1013 233,-1013 233,-1013 295,-1013 295,-1013 301,-1013 307,-1019 307,-1025 307,-1025 307,-1042 307,-1042 307,-1048 301,-1054 295,-1054"/>
<text text-anchor="middle" x="264" y="-1042" font-family="sans" font-size="10.00" fill="#000000">trim_reads_pe</text>
<text text-anchor="middle" x="264" y="-1031" font-family="sans" font-size="10.00" fill="#000000">sample: A</text>
<text text-anchor="middle" x="264" y="-1020" font-family="sans" font-size="10.00" fill="#000000">unit: 1</text>
</g>
<!-- 25&#45;&gt;18 -->
<g id="edge28" class="edge">
<title>25&#45;&gt;18</title>
<path fill="none" stroke="#c0c0c0" stroke-width="2" d="M264,-1012.7476C264,-1004.8767 264,-995.7743 264,-987.3232"/>
<polygon fill="#c0c0c0" stroke="#c0c0c0" stroke-width="2" points="267.5001,-987.1086 264,-977.1087 260.5001,-987.1087 267.5001,-987.1086"/>
</g>
<!-- 26 -->
<g id="node27" class="node">
<title>26</title>
<path fill="none" stroke="#56a2d8" stroke-width="2" stroke-dasharray="5,2" d="M522,-1054C522,-1054 460,-1054 460,-1054 454,-1054 448,-1048 448,-1042 448,-1042 448,-1025 448,-1025 448,-1019 454,-1013 460,-1013 460,-1013 522,-1013 522,-1013 528,-1013 534,-1019 534,-1025 534,-1025 534,-1042 534,-1042 534,-1048 528,-1054 522,-1054"/>
<text text-anchor="middle" x="491" y="-1042" font-family="sans" font-size="10.00" fill="#000000">trim_reads_pe</text>
<text text-anchor="middle" x="491" y="-1031" font-family="sans" font-size="10.00" fill="#000000">sample: B</text>
<text text-anchor="middle" x="491" y="-1020" font-family="sans" font-size="10.00" fill="#000000">unit: 1</text>
</g>
<!-- 26&#45;&gt;20 -->
<g id="edge30" class="edge">
<title>26&#45;&gt;20</title>
<path fill="none" stroke="#c0c0c0" stroke-width="2" d="M491,-1012.7476C491,-1004.8767 491,-995.7743 491,-987.3232"/>
<polygon fill="#c0c0c0" stroke="#c0c0c0" stroke-width="2" points="494.5001,-987.1086 491,-977.1087 487.5001,-987.1087 494.5001,-987.1086"/>
</g>
<!-- 27 -->
<g id="node28" class="node">
<title>27</title>
<path fill="none" stroke="#d8d356" stroke-width="2" stroke-dasharray="5,2" d="M673,-1054C673,-1054 611,-1054 611,-1054 605,-1054 599,-1048 599,-1042 599,-1042 599,-1025 599,-1025 599,-1019 605,-1013 611,-1013 611,-1013 673,-1013 673,-1013 679,-1013 685,-1019 685,-1025 685,-1025 685,-1042 685,-1042 685,-1048 679,-1054 673,-1054"/>
<text text-anchor="middle" x="642" y="-1042" font-family="sans" font-size="10.00" fill="#000000">trim_reads_se</text>
<text text-anchor="middle" x="642" y="-1031" font-family="sans" font-size="10.00" fill="#000000">sample: B</text>
<text text-anchor="middle" x="642" y="-1020" font-family="sans" font-size="10.00" fill="#000000">unit: 2</text>
</g>
<!-- 27&#45;&gt;22 -->
<g id="edge32" class="edge">
<title>27&#45;&gt;22</title>
<path fill="none" stroke="#c0c0c0" stroke-width="2" d="M642,-1012.7476C642,-1004.8767 642,-995.7743 642,-987.3232"/>
<polygon fill="#c0c0c0" stroke="#c0c0c0" stroke-width="2" points="645.5001,-987.1086 642,-977.1087 638.5001,-987.1087 645.5001,-987.1086"/>
</g>
<!-- 28 -->
<g id="node29" class="node">
<title>28</title>
<path fill="none" stroke="#5673d8" stroke-width="2" stroke-dasharray="5,2" d="M173.5,-545C173.5,-545 104.5,-545 104.5,-545 98.5,-545 92.5,-539 92.5,-533 92.5,-533 92.5,-521 92.5,-521 92.5,-515 98.5,-509 104.5,-509 104.5,-509 173.5,-509 173.5,-509 179.5,-509 185.5,-515 185.5,-521 185.5,-521 185.5,-533 185.5,-533 185.5,-539 179.5,-545 173.5,-545"/>
<text text-anchor="middle" x="139" y="-524.5" font-family="sans" font-size="10.00" fill="#000000">merge_variants</text>
</g>
<!-- 28&#45;&gt;23 -->
<g id="edge33" class="edge">
<title>28&#45;&gt;23</title>
<path fill="none" stroke="#c0c0c0" stroke-width="2" d="M116.2892,-508.8314C105.204,-499.9632 91.7046,-489.1637 79.7148,-479.5718"/>
<polygon fill="#c0c0c0" stroke="#c0c0c0" stroke-width="2" points="81.6987,-476.6768 71.7035,-473.1628 77.3258,-482.1429 81.6987,-476.6768"/>
</g>
<!-- 28&#45;&gt;24 -->
<g id="edge34" class="edge">
<title>28&#45;&gt;24</title>
<path fill="none" stroke="#c0c0c0" stroke-width="2" d="M143.5422,-508.8314C145.4884,-501.0463 147.8068,-491.7729 149.9663,-483.1347"/>
<polygon fill="#c0c0c0" stroke="#c0c0c0" stroke-width="2" points="153.3668,-483.9636 152.3967,-473.4133 146.5758,-482.2658 153.3668,-483.9636"/>
</g>
<!-- 29 -->
<g id="node30" class="node">
<title>29</title>
<path fill="none" stroke="#56d8a9" stroke-width="2" stroke-dasharray="5,2" d="M180.5,-617C180.5,-617 97.5,-617 97.5,-617 91.5,-617 85.5,-611 85.5,-605 85.5,-605 85.5,-593 85.5,-593 85.5,-587 91.5,-581 97.5,-581 97.5,-581 180.5,-581 180.5,-581 186.5,-581 192.5,-587 192.5,-593 192.5,-593 192.5,-605 192.5,-605 192.5,-611 186.5,-617 180.5,-617"/>
<text text-anchor="middle" x="139" y="-596.5" font-family="sans" font-size="10.00" fill="#000000">genotype_variants</text>
</g>
<!-- 29&#45;&gt;28 -->
<g id="edge35" class="edge">
<title>29&#45;&gt;28</title>
<path fill="none" stroke="#c0c0c0" stroke-width="2" d="M139,-580.8314C139,-573.131 139,-563.9743 139,-555.4166"/>
<polygon fill="#c0c0c0" stroke="#c0c0c0" stroke-width="2" points="142.5001,-555.4132 139,-545.4133 135.5001,-555.4133 142.5001,-555.4132"/>
</g>
<!-- 30 -->
<g id="node31" class="node">
<title>30</title>
<path fill="none" stroke="#568ad8" stroke-width="2" stroke-dasharray="5,2" d="M170,-689C170,-689 108,-689 108,-689 102,-689 96,-683 96,-677 96,-677 96,-665 96,-665 96,-659 102,-653 108,-653 108,-653 170,-653 170,-653 176,-653 182,-659 182,-665 182,-665 182,-677 182,-677 182,-683 176,-689 170,-689"/>
<text text-anchor="middle" x="139" y="-668.5" font-family="sans" font-size="10.00" fill="#000000">combine_calls</text>
</g>
<!-- 30&#45;&gt;29 -->
<g id="edge36" class="edge">
<title>30&#45;&gt;29</title>
<path fill="none" stroke="#c0c0c0" stroke-width="2" d="M139,-652.8314C139,-645.131 139,-635.9743 139,-627.4166"/>
<polygon fill="#c0c0c0" stroke="#c0c0c0" stroke-width="2" points="142.5001,-627.4132 139,-617.4133 135.5001,-627.4133 142.5001,-627.4132"/>
</g>
<!-- 31&#45;&gt;30 -->
<g id="edge37" class="edge">
<title>31&#45;&gt;30</title>
<path fill="none" stroke="#c0c0c0" stroke-width="2" d="M150.2149,-724.8314C148.6106,-717.131 146.703,-707.9743 144.9201,-699.4166"/>
<polygon fill="#c0c0c0" stroke="#c0c0c0" stroke-width="2" points="148.3021,-698.4892 142.8361,-689.4133 141.4493,-699.9169 148.3021,-698.4892"/>
</g>
<!-- 32&#45;&gt;30 -->
<g id="edge38" class="edge">
<title>32&#45;&gt;30</title>
<path fill="none" stroke="#c0c0c0" stroke-width="2" d="M342.2956,-732.4924C305.5693,-722.6131 249.272,-707.0665 191.6919,-689.1379"/>
<polygon fill="#c0c0c0" stroke="#c0c0c0" stroke-width="2" points="192.6558,-685.7722 182.0667,-686.1221 190.5628,-692.452 192.6558,-685.7722"/>
</g>
</g>
</svg>
